<svg xmlns="http://www.w3.org/2000/svg" width="1260" height="530" font-family="Segoe UI, Helvetica, Arial, sans-serif" font-size="12">
<defs><style>
  .header { fill: #4A90D9; } .header-text { fill: white; font-weight: bold; font-size: 13px; }
  .col-name { fill: #222; } .col-type { fill: #888; font-size: 11px; }
  .col-flag { fill: #D9534F; font-size: 10px; font-weight: bold; }
  .table-bg { fill: white; stroke: #ccc; stroke-width: 1; rx: 6; }
  .fk-line { stroke: #D9534F; stroke-width: 1.5; fill: none; marker-end: url(#arrow); }
</style>
<marker id="arrow" viewBox="0 0 10 10" refX="10" refY="5" markerWidth="8" markerHeight="8" orient="auto-start-reverse">
  <path d="M 0 0 L 10 5 L 0 10 z" fill="#D9534F"/>
</marker></defs>
<rect width="1260" height="530" fill="#F7F7F7"/>
<rect x="60" y="50" width="240" height="126" class="table-bg"/>
<rect x="60" y="50" width="240" height="32" class="header" rx="6"/>
<rect x="60" y="74" width="240" height="8" class="header"/>
<text x="180" y="71" text-anchor="middle" class="header-text">users</text>
<text x="70" y="101" class="col-name">id</text>
<text x="200" y="101" class="col-type">INTEGER</text>
<text x="270" y="101" class="col-flag">PK</text>
<text x="70" y="123" class="col-name">name</text>
<text x="200" y="123" class="col-type">TEXT</text>
<text x="270" y="123" class="col-flag">NN</text>
<text x="70" y="145" class="col-name">date_of_birth</text>
<text x="200" y="145" class="col-type">DATE</text>
<text x="70" y="167" class="col-name">email</text>
<text x="200" y="167" class="col-type">TEXT</text>
<text x="270" y="167" class="col-flag">NN,UQ</text>
<rect x="360" y="50" width="240" height="104" class="table-bg"/>
<rect x="360" y="50" width="240" height="32" class="header" rx="6"/>
<rect x="360" y="74" width="240" height="8" class="header"/>
<text x="480" y="71" text-anchor="middle" class="header-text">symptoms</text>
<text x="370" y="101" class="col-name">id</text>
<text x="500" y="101" class="col-type">INTEGER</text>
<text x="570" y="101" class="col-flag">PK</text>
<text x="370" y="123" class="col-name">name</text>
<text x="500" y="123" class="col-type">TEXT</text>
<text x="570" y="123" class="col-flag">NN,UQ</text>
<text x="370" y="145" class="col-name">category</text>
<text x="500" y="145" class="col-type">TEXT</text>
<text x="570" y="145" class="col-flag">NN</text>
<rect x="660" y="50" width="240" height="170" class="table-bg"/>
<rect x="660" y="50" width="240" height="32" class="header" rx="6"/>
<rect x="660" y="74" width="240" height="8" class="header"/>
<text x="780" y="71" text-anchor="middle" class="header-text">symptom_logs</text>
<text x="670" y="101" class="col-name">id</text>
<text x="800" y="101" class="col-type">INTEGER</text>
<text x="870" y="101" class="col-flag">PK</text>
<text x="670" y="123" class="col-name">user_id</text>
<text x="800" y="123" class="col-type">INTEGER</text>
<text x="870" y="123" class="col-flag">NN</text>
<text x="670" y="145" class="col-name">symptom_id</text>
<text x="800" y="145" class="col-type">INTEGER</text>
<text x="870" y="145" class="col-flag">NN</text>
<text x="670" y="167" class="col-name">log_date</text>
<text x="800" y="167" class="col-type">DATE</text>
<text x="870" y="167" class="col-flag">NN</text>
<text x="670" y="189" class="col-name">severity</text>
<text x="800" y="189" class="col-type">INTEGER</text>
<text x="670" y="211" class="col-name">notes</text>
<text x="800" y="211" class="col-type">TEXT</text>
<rect x="960" y="50" width="240" height="82" class="table-bg"/>
<rect x="960" y="50" width="240" height="32" class="header" rx="6"/>
<rect x="960" y="74" width="240" height="8" class="header"/>
<text x="1080" y="71" text-anchor="middle" class="header-text">moods</text>
<text x="970" y="101" class="col-name">id</text>
<text x="1100" y="101" class="col-type">INTEGER</text>
<text x="1170" y="101" class="col-flag">PK</text>
<text x="970" y="123" class="col-name">name</text>
<text x="1100" y="123" class="col-type">TEXT</text>
<text x="1170" y="123" class="col-flag">NN,UQ</text>
<rect x="60" y="310" width="240" height="170" class="table-bg"/>
<rect x="60" y="310" width="240" height="32" class="header" rx="6"/>
<rect x="60" y="334" width="240" height="8" class="header"/>
<text x="180" y="331" text-anchor="middle" class="header-text">mood_logs</text>
<text x="70" y="361" class="col-name">id</text>
<text x="200" y="361" class="col-type">INTEGER</text>
<text x="270" y="361" class="col-flag">PK</text>
<text x="70" y="383" class="col-name">user_id</text>
<text x="200" y="383" class="col-type">INTEGER</text>
<text x="270" y="383" class="col-flag">NN</text>
<text x="70" y="405" class="col-name">mood_id</text>
<text x="200" y="405" class="col-type">INTEGER</text>
<text x="270" y="405" class="col-flag">NN</text>
<text x="70" y="427" class="col-name">log_date</text>
<text x="200" y="427" class="col-type">DATE</text>
<text x="270" y="427" class="col-flag">NN</text>
<text x="70" y="449" class="col-name">intensity</text>
<text x="200" y="449" class="col-type">INTEGER</text>
<text x="70" y="471" class="col-name">notes</text>
<text x="200" y="471" class="col-type">TEXT</text>
<rect x="360" y="310" width="240" height="170" class="table-bg"/>
<rect x="360" y="310" width="240" height="32" class="header" rx="6"/>
<rect x="360" y="334" width="240" height="8" class="header"/>
<text x="480" y="331" text-anchor="middle" class="header-text">cycles</text>
<text x="370" y="361" class="col-name">id</text>
<text x="500" y="361" class="col-type">INTEGER</text>
<text x="570" y="361" class="col-flag">PK</text>
<text x="370" y="383" class="col-name">user_id</text>
<text x="500" y="383" class="col-type">INTEGER</text>
<text x="570" y="383" class="col-flag">NN</text>
<text x="370" y="405" class="col-name">start_date</text>
<text x="500" y="405" class="col-type">DATE</text>
<text x="570" y="405" class="col-flag">NN</text>
<text x="370" y="427" class="col-name">end_date</text>
<text x="500" y="427" class="col-type">DATE</text>
<text x="370" y="449" class="col-name">flow_level</text>
<text x="500" y="449" class="col-type">TEXT</text>
<text x="370" y="471" class="col-name">notes</text>
<text x="500" y="471" class="col-type">TEXT</text>
<rect x="660" y="310" width="240" height="104" class="table-bg"/>
<rect x="660" y="310" width="240" height="32" class="header" rx="6"/>
<rect x="660" y="334" width="240" height="8" class="header"/>
<text x="780" y="331" text-anchor="middle" class="header-text">medications</text>
<text x="670" y="361" class="col-name">id</text>
<text x="800" y="361" class="col-type">INTEGER</text>
<text x="870" y="361" class="col-flag">PK</text>
<text x="670" y="383" class="col-name">name</text>
<text x="800" y="383" class="col-type">TEXT</text>
<text x="870" y="383" class="col-flag">NN,UQ</text>
<text x="670" y="405" class="col-name">type</text>
<text x="800" y="405" class="col-type">TEXT</text>
<rect x="960" y="310" width="240" height="170" class="table-bg"/>
<rect x="960" y="310" width="240" height="32" class="header" rx="6"/>
<rect x="960" y="334" width="240" height="8" class="header"/>
<text x="1080" y="331" text-anchor="middle" class="header-text">medication_logs</text>
<text x="970" y="361" class="col-name">id</text>
<text x="1100" y="361" class="col-type">INTEGER</text>
<text x="1170" y="361" class="col-flag">PK</text>
<text x="970" y="383" class="col-name">user_id</text>
<text x="1100" y="383" class="col-type">INTEGER</text>
<text x="1170" y="383" class="col-flag">NN</text>
<text x="970" y="405" class="col-name">medication_id</text>
<text x="1100" y="405" class="col-type">INTEGER</text>
<text x="1170" y="405" class="col-flag">NN</text>
<text x="970" y="427" class="col-name">log_date</text>
<text x="1100" y="427" class="col-type">DATE</text>
<text x="1170" y="427" class="col-flag">NN</text>
<text x="970" y="449" class="col-name">dosage</text>
<text x="1100" y="449" class="col-type">TEXT</text>
<text x="970" y="471" class="col-name">notes</text>
<text x="1100" y="471" class="col-type">TEXT</text>
<path d="M 660 118 C 480.0 118, 480.0 96, 300 96" class="fk-line"/>
<path d="M 660 140 C 630.0 140, 630.0 96, 600 96" class="fk-line"/>
<path d="M 300 378 C 300.0 378, 300.0 96, 300 96" class="fk-line"/>
<path d="M 300 400 C 630.0 400, 630.0 96, 960 96" class="fk-line"/>
<path d="M 360 378 C 330.0 378, 330.0 96, 300 96" class="fk-line"/>
<path d="M 960 378 C 630.0 378, 630.0 96, 300 96" class="fk-line"/>
<path d="M 960 400 C 930.0 400, 930.0 356, 900 356" class="fk-line"/>
</svg>